<?xml version="1.0" encoding="UTF-8"?> <svg xmlns="http://www.w3.org/2000/svg" xmlns:xlink="http://www.w3.org/1999/xlink" width="90px" height="35px" viewBox="0 0 90 35"><!-- Generator: Sketch 51.2 (57519) - http://www.bohemiancoding.com/sketch --><title>logo</title><desc>Created with Sketch.</desc><defs></defs><g id="Page-1" stroke="none" stroke-width="1" fill="none" fill-rule="evenodd"><g id="logo" fill-rule="nonzero"><path d="M19.3655172,1.45833333 C21.0333095,1.45992919 22.6678741,1.92802705 24.0868966,2.81041667 L24.3206897,2.96041667 C24.4117241,3.02083333 24.5027586,3.08333333 24.5917241,3.14791667 C24.8875862,3.35625 24.9103448,3.63958333 24.5668966,4.00625 L24.7613793,4.16875 L24.8193103,4.22083333 L24.9558621,4.34375 L25.017931,4.4 L25.1544828,4.52916667 L25.2041379,4.57916667 L25.377931,4.75833333 C25.4413793,4.825 25.5034483,4.89444444 25.5641379,4.96666667 C25.6206897,5.03055556 25.6758621,5.09583333 25.7296552,5.1625 L25.7544828,5.19375 L25.8993103,5.37708333 L25.922069,5.40625 C25.9758621,5.47569444 26.0282759,5.54513889 26.0793103,5.61458333 C27.7041459,7.87874142 28.0895919,10.813795 27.1050665,13.4254033 C26.1205411,16.0370117 23.89798,17.975195 21.1903448,18.5833333 C21.4158621,19.0833333 21.2089655,19.3395833 20.8551724,19.4 L20.76,19.4145833 L20.7248276,19.4145833 C20.5662069,19.4395833 20.4075862,19.4597222 20.2489655,19.475 L20.1724138,19.475 C19.8965517,19.5 19.6206897,19.5125 19.3448276,19.5125 C18.7528648,19.5124521 18.1623736,19.4531325 17.582069,19.3354167 L17.5034483,19.3208333 C17.5551724,19.4458333 17.6027586,19.5791667 17.6462069,19.7145833 L17.6668966,19.7791667 C17.6834483,19.8333333 17.697931,19.8875 17.7124138,19.9416667 L17.7372414,20.0291667 C17.7496552,20.08125 17.762069,20.1333333 17.7744828,20.1854167 L17.7972414,20.2875 C17.8075862,20.3375 17.817931,20.3895833 17.8262069,20.4416667 C17.8344828,20.49375 17.8386207,20.5166667 17.8448276,20.5541667 C17.8510345,20.5916667 17.8613793,20.65625 17.8675862,20.70625 C17.8737931,20.75625 17.8675862,20.7854167 17.882069,20.825 C17.8965517,20.8645833 17.8944828,20.9270833 17.8986207,20.9770833 C17.9027586,21.0270833 17.8986207,21.0583333 17.8986207,21.0979167 C17.8986207,21.1375 17.8986207,21.2020833 17.9089655,21.2541667 C17.9089655,21.2541667 17.9089655,21.26875 17.9089655,21.2770833 C17.9842924,22.125379 17.8350935,22.9786279 17.4765517,23.75 L17.4289655,23.84375 L17.4910345,23.8729167 C17.5669862,23.9141645 17.6230744,23.9846696 17.646472,24.068308 C17.6698696,24.1519464 17.6585755,24.2415642 17.6151724,24.3166667 L16.0468966,27.0458333 C15.9756469,27.169256 15.8200064,27.2135067 15.6951724,27.1458333 L15.6103448,27.1 C13.977931,29.3916667 11.8055172,31.075 9.78206897,31.8020833 L9.61862069,31.8583333 L9.50689655,31.89375 L9.47793103,31.89375 L9.41172414,31.9145833 L9.29586207,31.9520833 L9.25034483,31.9666667 C9.12827586,32.0041667 8.98758621,32.04375 8.85931034,32.0770833 L8.80344828,32.0916667 L8.69793103,32.11875 L8.4662069,32.1729167 L8.39172414,32.1895833 L8.13931034,32.2395833 L8.1,32.2395833 L7.82689655,32.2833333 C7.42741607,32.3414437 7.02431699,32.3706851 6.62068966,32.3708333 C6.26896552,32.3708333 5.98344828,32.35 5.76,32.3375 C5.27629437,32.9625697 4.5398213,33.3364215 3.75310345,33.35625 L3.65586207,33.35625 C3.12413793,33.3354167 2.62137931,33.05625 2.16827586,32.8791667 C2.10131217,32.852802 2.0477449,32.8003471 2.0197042,32.7336801 C1.99166349,32.6670131 1.99152149,32.5917738 2.01931034,32.525 L3.80068966,28.1895833 C3.84078088,28.0916014 3.93544885,28.0275033 4.04068966,28.0270833 C4.06130306,28.0245539 4.08214521,28.0245539 4.10275862,28.0270833 C4.52523341,28.1323274 4.95858997,28.1868731 5.3937931,28.1895833 C5.64915231,28.1904436 5.90403933,28.1674281 6.15517241,28.1208333 L6.17586207,28.1208333 L6.34551724,28.0833333 L6.39931034,28.06875 L6.54206897,28.0270833 L6.61448276,28.0041667 L6.77586207,27.94375 L6.82758621,27.9208333 C6.88551724,27.8958333 6.94137931,27.86875 6.99724138,27.8395833 C7.05310345,27.8104167 7.10689655,27.7791667 7.15862069,27.7479167 L7.19586207,27.725 C7.24758621,27.69375 7.29517241,27.6604167 7.34275862,27.6270833 C7.83809124,27.2845218 8.16357459,26.7443517 8.23655172,26.14375 C8.23655172,26.09375 8.23655172,26.0520833 8.23655172,26.0166667 C8.23655172,25.98125 8.23655172,25.9916667 8.23655172,25.9791667 C8.23655172,25.925 8.23655172,25.8958333 8.23655172,25.8958333 C7.83594445,26.1196202 7.38700733,26.2412172 6.92896552,26.25 C6.5742719,26.2534143 6.22531096,26.1598078 5.91931034,25.9791667 C5.60084292,25.8012955 5.34116406,25.5332943 5.17241379,25.2083333 C4.77517241,25.5520833 4.39655172,25.7479167 3.98275862,25.7479167 C3.83818139,25.7472405 3.69451964,25.7247691 3.55655172,25.68125 C3.50275862,25.6645833 3.44827586,25.6451389 3.39310345,25.6229167 C3.13984927,25.5075654 2.90322767,25.3582995 2.68965517,25.1791667 L2.55103448,25.0604167 L2.41655172,24.9395833 L2.27586207,24.8125 C1.75034483,24.3020833 1.42758621,23.7708333 1.86206897,23.1083333 L4.17931034,19.4916667 C4.1923816,19.4716551 4.21286706,19.4577477 4.23619206,19.4530503 C4.25951706,19.4483529 4.28373881,19.4532567 4.30344828,19.4666667 L4.47517241,19.5833333 L5.2262069,18.3875 L5.06482759,18.2791667 C5.02469353,18.2518371 5.01365642,18.1971944 5.04,18.15625 L5.86758621,16.88125 C5.88065746,16.8612384 5.90114292,16.847331 5.92446792,16.8426336 C5.94779292,16.8379362 5.97201467,16.8428401 5.99172414,16.85625 L6.14275862,16.9583333 L6.8937931,15.7625 L6.74896552,15.66875 C6.62068966,15.5854167 6.99103448,15.3125 7.05310345,15.2520833 C7.83157194,14.5877673 8.81958064,14.224385 9.84,14.2270833 L9.95172414,14.2270833 C10.1360622,14.2315911 10.3199067,14.2482938 10.502069,14.2770833 L10.5558621,14.2770833 L10.682069,14.3020833 L10.7875862,14.325 L10.8931034,14.35 L11.0255172,14.3875 L11.1062069,14.4125 C11.1765517,14.4354167 11.2468966,14.4583333 11.3131034,14.4854167 C11.3230802,14.5068008 11.3341289,14.527661 11.3462069,14.5479167 C11.3377015,14.5265624 11.3280316,14.5056973 11.3172414,14.4854167 C11.2551724,14.3583333 11.1103448,14.0416667 10.9572414,13.6208333 C9.94744302,10.8503695 10.3432626,7.75807807 12.0177178,5.33599279 C13.692173,2.91390751 16.4347167,1.46658296 19.3655172,1.45833333 Z M19.3655172,0 C16.1999118,0.00854081086 13.2091312,1.46292553 11.234236,3.95415545 C9.25934074,6.44538536 8.51366153,9.7043546 9.20689655,12.8145833 C8.32218275,12.9112555 7.47206666,13.2144291 6.72413793,13.7 C6.51781753,13.8344711 6.32017904,13.9819898 6.13241379,14.1416667 C5.8862069,14.35 5.32758621,14.7875 5.29241379,15.53125 C5.03895869,15.6541863 4.82416062,15.8452422 4.67172414,16.0833333 L3.84413793,17.3583333 C3.69235467,17.593216 3.60787548,17.8657151 3.6,18.1458333 C3.34680831,18.2681992 3.13203734,18.4585102 2.97931034,18.6958333 L0.639310345,22.3166667 C0.206896552,22.9875 -0.287586207,24.3395833 1.26,25.8583333 L1.41931034,26.0083333 L1.57241379,26.1458333 L1.72137931,26.275 L1.75655172,26.3041667 C2.07627863,26.5596741 2.42920328,26.7699555 2.80551724,26.9291667 L2.89241379,26.9645833 C2.68773384,27.1410018 2.52749246,27.3637562 2.42482759,27.6145833 L0.680689655,31.9791667 C0.505190514,32.4061444 0.507607545,32.8862545 0.687396646,33.3114186 C0.867185747,33.7365828 1.20923738,34.07107 1.63655172,34.2395833 C1.71724138,34.2708333 1.80827586,34.3104167 1.90551724,34.3520833 C2.43386449,34.6112151 3.00585188,34.7681023 3.59172414,34.8145833 L3.74482759,34.8145833 C4.69678789,34.8106734 5.61499727,34.4590495 6.32896552,33.825 L6.61241379,33.825 C7.08388815,33.8249194 7.55475022,33.7908042 8.02137931,33.7229167 L8.33586207,33.6729167 L8.37310345,33.6729167 L8.66689655,33.6166667 L8.73103448,33.6020833 L8.75172414,33.6020833 L9.01862069,33.5395833 L9.11586207,33.5145833 L9.14068966,33.5145833 L9.15724138,33.5145833 L9.20068966,33.5041667 C9.33310345,33.4708333 9.48413793,33.4270833 9.64965517,33.3770833 L9.69310345,33.3645833 L9.82137931,33.325 L9.89586207,33.3 L9.93103448,33.2875 L9.95793103,33.2875 L10.0531034,33.25625 L10.0944828,33.2416667 L10.2289655,33.1958333 C12.4531034,32.375 14.6317241,30.7104167 16.3303448,28.5416667 C16.736684,28.4127083 17.0805338,28.1355696 17.2944828,27.7645833 L18.8627586,25.0354167 C19.0878842,24.6405681 19.1545045,24.1739683 19.0489655,23.73125 C19.317233,22.9268853 19.4309818,22.0784501 19.3841379,21.23125 C19.3841379,21.2173611 19.3841379,21.2034722 19.3841379,21.1895833 C19.3841379,21.1354167 19.3841379,21.0791667 19.3737931,21.025 L19.3737931,20.9833333 C19.6903448,20.9833333 20.0110345,20.96875 20.3275862,20.9395833 L20.402069,20.9395833 L20.4165517,20.9395833 C20.6006897,20.9208333 20.7848276,20.8979167 20.9606897,20.86875 L21.0082759,20.86875 L21.0186207,20.86875 L21.117931,20.8541667 C21.7154993,20.7646486 22.2373425,20.3994413 22.5289655,19.8666667 C22.5517241,19.8229167 22.5765517,19.7708333 22.6013793,19.7145833 C26.4945361,18.3481762 29.1032892,14.6515031 29.1041379,10.5 C29.1087758,8.44816462 28.4661659,6.44785706 27.2689655,4.7875 C27.2110345,4.70625 27.1510345,4.625 27.0848276,4.53958333 L27.062069,4.51041667 L26.8924138,4.30208333 L26.8717241,4.27708333 C26.8034483,4.19375 26.7413793,4.12083333 26.6772414,4.05 C26.6027586,3.96458333 26.5282759,3.88541667 26.4558621,3.80625 L26.2944828,3.64166667 C26.3001021,3.55912464 26.3001021,3.47629203 26.2944828,3.39375 C26.2315155,2.8361863 25.929051,2.33441564 25.4668966,2.02083333 C25.3737931,1.95416667 25.2703448,1.88333333 25.1524138,1.8125 L24.8813793,1.6375 C23.2315267,0.581864483 21.3202183,0.0144522592 19.3655172,0 Z" id="Shape" fill="#282828"></path><path d="M19.0075862,10.6708333 C19.0761392,10.2747588 19.2547651,9.90635773 19.5227586,9.60833333 L24.5710345,4.00416667 C24.9144828,3.63541667 24.8917241,3.35833333 24.5958621,3.14583333 C21.3882965,0.822837851 17.0495071,0.884603743 13.9084405,3.29797672 C10.7673739,5.7113497 9.56255137,9.90890226 10.9406897,13.6375 C11.3035858,14.640909 11.84404,15.5698025 12.5358621,16.3791667 C12.1089055,16.4091965 11.6962799,16.5467384 11.3358621,16.7791667 C10.6761918,17.335548 10.0675348,17.9505235 9.51724138,18.6166667 L5.17241379,23.76875 C4.92,24.2041667 4.82482759,25.33125 5.92758621,25.9875 C7.03034483,26.64375 8.24689655,25.9041667 8.24689655,25.9041667 C8.24689655,25.9041667 8.35241379,27.1395833 7.00551724,27.85 C5.93586207,28.4104167 4.61793103,28.16875 4.10896552,28.0416667 C3.98421616,28.0102981 3.85552644,28.0759773 3.80689655,28.1958333 L2.01310345,32.5333333 C1.98531459,32.6001072 1.9854566,32.6753464 2.0134973,32.7420134 C2.041538,32.8086804 2.09510527,32.8611353 2.16206897,32.8875 C2.61103448,33.0645833 3.11793103,33.34375 3.64965517,33.3645833 C4.4710032,33.3765991 5.25023113,32.9993242 5.7537931,32.3458333 C7.12133927,32.4676561 8.49860599,32.2789958 9.78413793,31.79375 C11.8324138,31.0583333 14.0337931,29.3416667 15.6724138,27.0020833 C16.4255172,25.93125 16.9406897,24.75625 17.4786207,23.7333333 C18.1551724,22.44375 18.0517241,20.59375 17.5282759,19.3333333 L17.6068966,19.3479167 C18.6841852,19.5672501 19.7924546,19.5842015 20.8758621,19.3979167 C21.2275862,19.3375 21.4344828,19.08125 21.2110345,18.58125 L18.8627586,14.03125 C18.6496359,13.6181941 18.5769549,13.1461463 18.6558621,12.6875 L19.0075862,10.6708333 Z" id="Shape" fill="#FFFFFF"></path><path d="M2.68965517,25.1791667 C3.70965517,25.9791667 4.40896552,25.8645833 5.17241379,25.2 C4.94671748,24.7499815 4.94671748,24.2187685 5.17241379,23.76875 L9.51724138,18.6166667 C9.72413793,18.3708333 9.93103448,18.1354167 10.137931,17.9041667 C10.3448276,17.6729167 10.5517241,17.4729167 10.7710345,17.2666667 C10.9848441,17.0430958 11.2236808,16.8452465 11.4827586,16.6770833 C11.8100639,16.5102506 12.1661942,16.4083988 12.5317241,16.3770833 C12.0453015,15.8062459 11.6317427,15.1763507 11.3006897,14.5020833 C10.0354744,14.0280819 8.62237178,14.1824949 7.48758621,14.91875 C7.32945699,15.0212571 7.17810417,15.1339943 7.03448276,15.25625 C6.97241379,15.3104167 6.60206897,15.5833333 6.73034483,15.6729167 L6.87517241,15.7666667 L6.12413793,16.9625 L5.97310345,16.8604167 C5.95339398,16.8470067 5.92917223,16.8421029 5.90584723,16.8468003 C5.88252223,16.8514977 5.86203678,16.8654051 5.84896552,16.8854167 L5.02137931,18.1604167 C4.99503573,18.2013611 5.00607284,18.2560037 5.0462069,18.2833333 L5.20758621,18.3916667 L4.47724138,19.5833333 L4.30551724,19.4666667 C4.28580777,19.4532567 4.26158603,19.4483529 4.23826103,19.4530503 C4.21493603,19.4577477 4.19445057,19.4716551 4.18137931,19.4916667 L1.84758621,23.1083333 C1.32,23.9270833 1.94482759,24.55 2.68965517,25.1791667 Z" id="Shape" fill="#FFC82C"></path><path d="M27.66,10.48125 C27.661882,7.96207485 26.5260098,5.57873001 24.5731034,4.00416667 L19.5248276,9.60833333 C19.2567394,9.90629316 19.0780993,10.2747233 19.0096552,10.6708333 L18.657931,12.6875 C18.5790239,13.1461463 18.6517048,13.6181941 18.8648276,14.03125 L21.2089655,18.5895833 C24.979328,17.740909 27.6600523,14.371495 27.66,10.48125 Z" id="Shape" fill="#EEAD24"></path><path d="M24.0144828,12.2625 C23.8569579,10.3698652 22.5393901,8.77913662 20.7186207,8.28333333 L19.5248276,9.60833333 C19.2567394,9.90629316 19.0780993,10.2747233 19.0096552,10.6708333 L18.657931,12.6875 C18.5790239,13.1461463 18.6517048,13.6181941 18.8648276,14.03125 L20.4268966,17.0666667 C22.6615396,16.6161608 24.2050132,14.5492825 24.0144828,12.2625 Z" id="Shape" fill="#FFC82C"></path><path d="M25.6158621,5.41666667 C25.7899007,5.45136474 25.9548097,5.52232807 26.1,5.625 C25.6656277,5.02002449 25.1527994,4.47630902 24.5751724,4.00833333 L19.5268966,9.6125 C19.2589031,9.9105244 19.0802771,10.2789255 19.0117241,10.675 L18.657931,12.6875 C18.6294468,12.8525191 18.6204187,13.0203483 18.6310345,13.1875 C18.7021965,13.1177392 18.7560614,13.0320988 18.7882759,12.9375 L19.4731034,10.925 C19.5828377,10.6014628 19.7671901,10.3087344 20.0110345,10.0708333 L22.2310345,7.90416667 C23.2510345,6.96458333 24.0765517,6.2375 24.6827586,5.75833333 C24.9356364,5.5229382 25.2718907,5.39981477 25.6158621,5.41666667 Z" id="Shape" fill="#E6E6E5" style="mix-blend-mode: multiply;"></path><path d="M17.9648276,12.19375 L18.2234483,10.7729167 C18.3544952,10.0524676 18.6785835,9.38177999 19.1606897,8.83333333 L24.3331034,2.96041667 C24.1758621,2.85625 24.0158621,2.75694444 23.8531034,2.6625 L18.7448276,8.4625 C18.1957381,9.08768688 17.8266012,9.85197776 17.6772414,10.6729167 L17.4186207,12.0833333 C17.2382002,13.0716018 17.3835087,14.0921673 17.8324138,14.9895833 L20.1910345,19.4958333 C20.3868966,19.4777778 20.5827586,19.4527778 20.7786207,19.4208333 L18.3331034,14.7416667 C17.9379286,13.9554508 17.8086121,13.0607746 17.9648276,12.19375 Z" id="Shape" fill="#E6E6E5"></path><path d="M14.8593103,18.3145833 C15.5359205,19.623703 16.6203235,20.6731888 17.9462069,21.3020833 C17.9206832,20.6295847 17.7807203,19.9664862 17.5324138,19.3416667 C16.5928007,19.1446436 15.6904239,18.7979245 14.8593103,18.3145833 Z" id="Shape" fill="#E6E6E5" style="mix-blend-mode: multiply;"></path><path d="M13.7068966,25.6645833 C13.6649065,25.7336499 13.6524294,25.8168766 13.6723012,25.8953466 C13.6921731,25.9738166 13.7427058,26.0408642 13.8124138,26.08125 L15.6951724,27.1229167 C15.8200064,27.19059 15.9756469,27.1463393 16.0468966,27.0229167 L17.6151724,24.29375 C17.6585755,24.2186476 17.6698696,24.1290297 17.646472,24.0453914 C17.6230744,23.961753 17.5669862,23.8912479 17.4910345,23.85 L15.5172414,22.9291667 C15.4456548,22.8950335 15.3635167,22.8910091 15.2889773,22.9179828 C15.2144378,22.9449564 15.1536334,23.0007075 15.12,23.0729167 C14.7040622,23.9661264 14.2320732,24.8317661 13.7068966,25.6645833 Z" id="Shape" fill="#FFC82C"></path><path d="M13.9737931,26.1791667 C14.6299903,25.1708337 15.2089084,24.113605 15.7055172,23.0166667 L15.5172414,22.9166667 C15.3810554,22.849223 15.2162901,22.9026827 15.1448276,23.0375 C14.7194388,23.9494029 14.2356613,24.8325129 13.6965517,25.68125 C13.6574606,25.7465847 13.6466208,25.8251805 13.6665519,25.8987689 C13.6864831,25.9723573 13.7354492,26.0345291 13.802069,26.0708333 L13.9737931,26.1791667 Z" id="Shape" fill="#EEAD24"></path><path d="M7.33655172,27.6354167 C7.22582273,27.7131983 7.10965836,27.7828239 6.98896552,27.84375 C6.95172414,27.8645833 6.87103448,27.9020833 6.82551724,27.9229167 C7.0862069,29.2958333 7.94275862,31.1708333 8.85931034,32.0770833 C9.08275862,32.01875 9.34551724,31.9375 9.48,31.8916667 C8.54896552,31.15 7.56206897,29.0208333 7.33655172,27.6354167 Z" id="Shape" fill="#FFD05D"></path><path d="M9.10344828,24.8520833 C8.03314389,24.2165149 7.094058,23.3798257 6.33724138,22.3875 L6.70551724,21.9375 C7.38206897,22.8583333 8.50344828,23.8979167 9.46344828,24.4020833 L9.10344828,24.8520833 Z" id="Shape" fill="#FFD05D"></path><path d="M8.51172414,31.90625 C7.53310345,31.9125 6,31.25 6,31.25 C5.97189774,31.5216525 5.92208104,31.7905801 5.85103448,32.0541667 C5.82458633,32.1523488 5.7892665,32.2478865 5.74551724,32.3395833 C7.05712039,32.4576361 8.37854549,32.2877569 9.61862069,31.8416667 C9.2512299,31.8850068 8.88162742,31.9065717 8.51172414,31.90625 Z" id="Shape" fill="#E6E6E5" style="mix-blend-mode: multiply;"></path><path d="M8.23862069,25.9041667 C8.23862069,25.9041667 8.34413793,27.1395833 6.99724138,27.85 C6.83576235,27.9350941 6.66675487,28.0048405 6.49241379,28.0583333 C6.34913492,28.1008975 6.20332684,28.1342975 6.05586207,28.1583333 C6.99310345,28.19375 8.12482759,27.5604167 9.01655172,26.8583333 C11.0089655,25.2770833 11.6875862,21.7041667 11.6875862,21.7041667 L8.23862069,25.9041667 Z" id="Shape" fill="#E6E6E5" style="mix-blend-mode: multiply;"></path><path d="M11.4972414,16.6770833 C11.8245467,16.5102506 12.180677,16.4083988 12.5462069,16.3770833 C12.0597842,15.8062459 11.6462254,15.1763507 11.3151724,14.5020833 C10.8145276,14.3114611 10.2819783,14.2202 9.74689655,14.2333333 L9.74689655,14.2458333 C10.2910345,15.9125 9.52137931,17.74375 7.09241379,20.5854167 C6.86275862,20.8541667 6.62896552,21.1354167 6.40137931,21.41875 C4.86827586,23.26875 3.28137931,25.1833333 1.84965517,24.2458333 L1.77103448,24.1666667 C2.01083746,24.5596719 2.32256462,24.9032564 2.68965517,25.1791667 C3.70965517,25.9791667 4.40896552,25.8645833 5.17241379,25.2 C5.14091581,25.1324528 5.11395859,25.0628517 5.09172414,24.9916667 C4.94578468,24.589139 4.97353788,24.1435148 5.16827586,23.7625 L9.51724138,18.6166667 C9.72413793,18.3708333 9.93103448,18.1354167 10.137931,17.9041667 C10.3448276,17.6729167 10.5517241,17.4729167 10.7710345,17.2666667 C10.9893449,17.0421873 11.2330835,16.844304 11.4972414,16.6770833 Z" id="Shape" fill="#EEAD24"></path><path d="M50.1455172,8.49791667 C48.8705413,8.46858688 47.6518442,9.02617787 46.8351724,10.0125 C45.897931,11.15625 45.6993103,12.0958333 45.6993103,15.0979167 L45.6993103,21.55625 C45.6993103,24.5270833 45.9062069,25.4708333 46.8351724,26.6145833 C47.6518442,27.6009055 48.8705413,28.1584965 50.1455172,28.1291667 C51.8193103,28.1291667 53.2096552,27.2958333 53.9193103,25.9 C54.4593103,24.9 54.5731034,24.15625 54.5731034,22.1854167 L54.5731034,21.4270833 C54.5731034,21.2464402 54.4276732,21.1 54.2482759,21.1 L52.0303448,21.1 C51.8525511,21.0999855 51.7077821,21.2439028 51.7055172,21.4229167 C51.7055172,22.275 51.6724138,23.4166667 51.6206897,23.8708333 C51.5358621,24.8416667 50.94,25.4708333 50.1165517,25.4708333 C49.4648276,25.4708333 48.9537931,25.0708333 48.7262069,24.3854167 C48.5834483,23.9854167 48.5193103,23.1854167 48.5193103,21.35625 L48.5193103,15.3 C48.5193103,13.7 48.5751724,12.7854167 48.662069,12.4145833 C48.8689655,11.6145833 49.3717241,11.1645833 50.1103448,11.1645833 C50.937931,11.1645833 51.5296552,11.7645833 51.6434483,12.6791667 C51.6682759,13.0958333 51.6951724,13.8270833 51.6993103,14.78125 C51.7004479,14.961079 51.8455455,15.1062536 52.0241379,15.10625 L54.2482759,15.10625 C54.4276732,15.10625 54.5731034,14.9598098 54.5731034,14.7791667 L54.5731034,14.0708333 C54.5731034,12.2145833 54.4303448,11.5270833 53.9193103,10.5854167 C53.2117241,9.27083333 51.7924138,8.49791667 50.1455172,8.49791667 Z" id="Shape" fill="#282828"></path><path d="M66.3289655,8.78541667 L64.137931,8.78541667 C63.9585337,8.78541667 63.8131034,8.93185686 63.8131034,9.1125 L63.8131034,16.5854167 L60.6662069,16.5854167 L60.6662069,9.11041667 C60.6662069,8.92977353 60.5207766,8.78333333 60.3413793,8.78333333 L58.1524138,8.78333333 C57.9730165,8.78333333 57.8275862,8.92977353 57.8275862,9.11041667 L57.8275862,27.5166667 C57.8275862,27.6973098 57.9730165,27.84375 58.1524138,27.84375 L60.3413793,27.84375 C60.5207766,27.84375 60.6662069,27.6973098 60.6662069,27.5166667 L60.6662069,19.2416667 L63.8151724,19.2416667 L63.8151724,27.5166667 C63.8151724,27.6973098 63.9606027,27.84375 64.14,27.84375 L66.3289655,27.84375 C66.5083628,27.84375 66.6537931,27.6973098 66.6537931,27.5166667 L66.6537931,9.11041667 C66.6526556,8.93058765 66.507558,8.78541302 66.3289655,8.78541667 Z" id="Shape" fill="#282828"></path><path d="M77.7082759,8.78541667 L70.6386207,8.78541667 C70.4592234,8.78541667 70.3137931,8.93185686 70.3137931,9.1125 L70.3137931,27.4458333 C70.3192406,27.6678872 70.4967189,27.846598 70.7172414,27.8520833 L77.7082759,27.8520833 C77.8876732,27.8520833 78.0331034,27.7056431 78.0331034,27.525 L78.0331034,25.5208333 C78.0331034,25.3401902 77.8876732,25.19375 77.7082759,25.19375 L73.1565517,25.19375 L73.1565517,19.3 L76.3448276,19.3 C76.5242249,19.3 76.6696552,19.1535598 76.6696552,18.9729167 L76.6696552,16.96875 C76.6696552,16.7881069 76.5242249,16.6416667 76.3448276,16.6416667 L73.1524138,16.6416667 L73.1524138,11.4333333 L77.7041379,11.4333333 C77.8835353,11.4333333 78.0289655,11.2868931 78.0289655,11.10625 L78.0289655,9.11041667 C78.0278525,8.93220027 77.8852524,8.78768346 77.7082759,8.78541667 Z" id="Shape" fill="#282828"></path><path d="M85.2041379,8.78541667 L81.4986207,8.78541667 C81.3192234,8.78541667 81.1737931,8.93185686 81.1737931,9.1125 L81.1737931,27.51875 C81.1737931,27.6993931 81.3192234,27.8458333 81.4986207,27.8458333 L85.2041379,27.8458333 C88.4668966,27.8458333 90,26.13125 90,22.475 L90,14.1666667 C90,10.5 88.4668966,8.78541667 85.2041379,8.78541667 Z M87.1613793,21.9291667 C87.1613793,23.3583333 87.0475862,23.9291667 86.6793103,24.44375 C86.3110345,24.9583333 85.6862069,25.1875 84.8917241,25.1875 L84.0124138,25.1875 L84.0124138,11.4375 L84.8917241,11.4375 C85.6862069,11.4375 86.3110345,11.69375 86.6793103,12.18125 C87.0475862,12.66875 87.1613793,13.2666667 87.1613793,14.6958333 L87.1613793,21.9291667 Z" id="Shape" fill="#282828"></path><path d="M39.1034483,17.0145833 C37.0882759,15.1291667 36.5772414,14.35625 36.5772414,13.04375 C36.5772414,11.9 37.197931,11.1583333 38.1662069,11.1583333 C38.8965517,11.1583333 39.3227586,11.4479167 39.5751724,12.2 C39.66,12.5020833 39.7593103,13.45 39.782069,13.61875 C39.7904593,13.788515 39.9258365,13.9239296 40.0944828,13.93125 L42.2689655,13.93125 C42.4415069,13.93125 42.5813793,13.7904062 42.5813793,13.6166667 C42.5813793,13.6166667 42.5151724,12.74375 42.5151724,12.7395833 C42.5151724,12.7354167 42.5151724,12.7104167 42.5151724,12.7104167 C42.1013793,9.92083333 40.6737931,8.49791667 38.277931,8.49791667 C35.6110345,8.49791667 33.8234483,10.3833333 33.8234483,13.2125 C33.8234483,15.3270833 34.6737931,16.8416667 37.0593103,19.0708333 C38.6482759,20.5291667 38.817931,20.7375 39.2731034,21.3291667 C39.7352825,21.9152096 39.9946488,22.6372607 40.0117241,23.3854167 C40.0117241,24.6708333 39.3310345,25.46875 38.28,25.46875 C37.137931,25.46875 36.4551724,24.66875 36.3124138,23.09375 L36.3124138,23.0479167 C36.3124138,22.90625 36.297931,22.2145833 36.297931,22.2145833 C36.297931,22.0442955 36.1608375,21.90625 35.9917241,21.90625 L33.8834483,21.90625 C33.7178049,21.9125861 33.5846566,22.0457531 33.5772414,22.2125 C33.5677116,22.3755534 33.5677116,22.53903 33.5772414,22.7020833 C33.5576226,23.4907158 33.665228,24.2773282 33.8958621,25.03125 C34.0993989,25.6474759 34.4269037,26.2148379 34.857931,26.6979167 C35.2754593,27.1564393 35.7873823,27.5176294 36.357931,27.75625 C36.9668903,28.0051367 37.6186748,28.1304517 38.2758621,28.125 C40.9427586,28.125 42.7593103,26.1541667 42.7593103,23.2395833 C42.7551724,20.9291667 42.0455172,19.7291667 39.1034483,17.0145833 Z" id="Shape" fill="#282828"></path></g></g></svg> 